PathFileType	4	(X/Y/Z)	./resultDataOpenSim/trcMotMarkerGrf/sub06/qtm-04-02.trc
DataRate	CameraRate	NumFrames	NumMarkers	Units	OrigDataRate	OrigDataStartFrame	OrigNumFrames
250.000000	250.000000	9	24	m	250.000000	68	541
Frame#	Time	L.Toe.Tip			R.Toe.Tip			L.Ankle.Lat			R.Ankle.Lat			L.Ankle.Med			R.Ankle.Med			L.Heel			R.Heel			L.Knee.Lat			R.Knee.Lat			L.Knee.Med			R.Knee.Med			L.Thigh.Upper			R.Thigh.Upper			L.ASIS			R.ASIS			V.Sacral			L.Acromium			R.Acromium			C7			L.Elbow			R.Elbow			L.Wrist.Lat			R.Wrist.Lat
		X1	Y1	Z1	X2	Y2	Z2	X3	Y3	Z3	X4	Y4	Z4	X5	Y5	Z5	X6	Y6	Z6	X7	Y7	Z7	X8	Y8	Z8	X9	Y9	Z9	X10	Y10	Z10	X11	Y11	Z11	X12	Y12	Z12	X13	Y13	Z13	X14	Y14	Z14	X15	Y15	Z15	X16	Y16	Z16	X17	Y17	Z17	X18	Y18	Z18	X19	Y19	Z19	X20	Y20	Z20	X21	Y21	Z21	X22	Y22	Z22	X23	Y23	Z23	X24	Y24	Z24

68	0.268	-1.3140946	0.086455832	-0.091457226	-0.80253604	0.035915393	0.10987884	-1.3212007	0.21640303	-0.11213711	-0.93739688	0.061896827	0.12881774	-1.3043152	0.21888939	-0.030254409	-0.91764241	0.07904544	0.041958278	-1.3731365	0.26905637	-0.063026012	-0.99196858	0.038346624	0.066397702	-0.98511424	0.38339264	-0.13335325	-0.86945719	0.44181249	0.15753712	-0.98263168	0.36872516	-0.013129642	-0.90440216	0.42934067	0.03372017	-1.0340952	0.77553998	-0.12789845	-1.0072	0.79313181	0.21546219	-0.95552911	0.82469208	-0.090694698	-0.92577929	0.84220404	0.15176857	-1.1253901	0.91131173	0.052199468	-1.0027766	1.3165218	-0.14275388	-0.99220953	1.3008057	0.22001389	-1.070248	1.351943	0.040170193	-1.0296891	0.99328067	-0.20467406	-1.096605	1.0035693	0.28263221	-0.83105885	0.84363889	-0.19305712	-0.99609729	0.79087972	0.33434397
69	0.272	-1.2977622	0.086594027	-0.091322115	-0.80264136	0.035942979	0.10997586	-1.3069009	0.21625485	-0.11139181	-0.93749373	0.061941793	0.12883745	-1.2901685	0.21884762	-0.029567094	-0.91767643	0.079111998	0.042034714	-1.359364	0.26805571	-0.062060323	-0.99198735	0.038390466	0.066350214	-0.97240636	0.38589429	-0.13285034	-0.86799415	0.44181722	0.15796068	-0.96969992	0.37123834	-0.012340655	-0.90251247	0.42972035	0.03384035	-1.027593	0.77755741	-0.12733831	-1.0018681	0.79436914	0.21620092	-0.94964549	0.82658181	-0.090244615	-0.91998075	0.843605	0.15289606	-1.1193758	0.91307518	0.05224255	-0.99736759	1.3182427	-0.14253841	-0.98632243	1.3029289	0.22016209	-1.0644871	1.3536818	0.040347719	-1.0256071	0.99516369	-0.20374204	-1.0890512	1.0051673	0.28325245	-0.82858039	0.84364842	-0.19322471	-0.98589564	0.79346592	0.3347362
70	0.276	-1.2812267	0.086498439	-0.091112003	-0.80272854	0.035971754	0.11004742	-1.2925445	0.21588051	-0.11066744	-0.93755938	0.061975751	0.12884583	-1.2756792	0.21858655	-0.028951931	-0.91771535	0.079178892	0.042094593	-1.3455546	0.26676048	-0.061143215	-0.99201384	0.03842546	0.066313817	-0.95968038	0.38853616	-0.13231146	-0.86667129	0.44178568	0.15821806	-0.95661286	0.3738923	-0.011553984	-0.90066364	0.43008589	0.033893262	-1.0211445	0.77961621	-0.12698046	-0.99691264	0.79553791	0.21674301	-0.94386439	0.82845177	-0.089828411	-0.91381611	0.84504871	0.1540999	-1.1132054	0.91477667	0.052531123	-0.99193351	1.3199793	-0.14232793	-0.98041095	1.3050696	0.22028852	-1.0587188	1.3554315	0.040533867	-1.0215802	0.99708957	-0.2028707	-1.0813608	1.0067767	0.28415577	-0.82610796	0.84368969	-0.1934105	-0.97561728	0.79615478	0.33507968
71	0.28	-1.2643445	0.086232437	-0.090992093	-0.80280434	0.03599917	0.11009502	-1.2779851	0.21530215	-0.11000986	-0.93760733	0.062004148	0.12884315	-1.2608867	0.2181113	-0.028397837	-0.91777008	0.079247061	0.042121066	-1.3317114	0.26517023	-0.060284666	-0.9920631	0.038428335	0.066301729	-0.94699954	0.39130374	-0.13173247	-0.86563544	0.44168138	0.15831645	-0.94369905	0.37673312	-0.010698303	-0.89889371	0.43041176	0.033922137	-1.0146986	0.7817002	-0.1266661	-0.99211597	0.79664721	0.21718488	-0.93808871	0.83033254	-0.08940894	-0.90752901	0.8465125	0.15536832	-1.1069922	0.91643215	0.052930518	-0.98647052	1.3217226	-0.14212159	-0.97447296	1.3072249	0.22039343	-1.0529405	1.3571866	0.040729389	-1.0176047	0.99904713	-0.20206337	-1.0736544	1.0083884	0.28525458	-0.82363972	0.84375952	-0.19361257	-0.96532538	0.79892741	0.33537651
72	0.284	-1.2470786	0.085837179	-0.090996745	-0.8028744	0.036022024	0.11012192	-1.263199	0.21452208	-0.10940529	-0.93764331	0.062027543	0.1288271	-1.2459384	0.21742562	-0.027860205	-0.91784004	0.079318759	0.042114164	-1.3177957	0.26326628	-0.059541514	-0.99213949	0.038393457	0.066313492	-0.93442219	0.39418561	-0.13111541	-0.864762	0.44152987	0.15833958	-0.9311214	0.37979439	-0.0097422957	-0.89728122	0.43068018	0.033950171	-1.0082299	0.78379619	-0.1263532	-0.98724366	0.79775392	0.21766267	-0.93218043	0.83227473	-0.088931246	-0.90160307	0.84797103	0.15662439	-1.1008557	0.91806914	0.053328556	-0.98097804	1.3234588	-0.14191806	-0.96851244	1.3093824	0.22047053	-1.0471555	1.3589355	0.040930738	-1.0136683	1.0010252	-0.20130658	-1.0660782	1.0100038	0.28633384	-0.82119715	0.84384914	-0.19383956	-0.9550305	0.80176108	0.33562536
73	0.288	-1.2294571	0.08532837	-0.091078365	-0.80294089	0.036039487	0.1101337	-1.2482455	0.213534	-0.10882149	-0.93769171	0.062026493	0.12878947	-1.2309836	0.21652212	-0.027288873	-0.91791873	0.079395099	0.042086717	-1.3037504	0.26102071	-0.05897084	-0.9922297	0.038350873	0.066327596	-0.92195941	0.39717863	-0.13046635	-0.86380296	0.44139247	0.1583917	-0.91871586	0.38303746	-0.0087432642	-0.89595873	0.43088101	0.033953352	-1.0017133	0.78588816	-0.12610891	-0.98241207	0.79888183	0.21815228	-0.92604523	0.83431113	-0.08835422	-0.89634594	0.84941811	0.15775713	-1.0948267	0.9197015	0.053700907	-0.97546075	1.3251796	-0.14171874	-0.96253415	1.311525	0.22051559	-1.0413732	1.3606635	0.041132616	-1.009733	1.0030164	-0.20055105	-1.0587128	1.0116144	0.28724573	-0.81881399	0.84394948	-0.19410571	-0.94470471	0.80462517	0.33582203
74	0.292	-1.2115078	0.08472406	-0.091190734	-0.80300414	0.03605333	0.11013622	-1.2331762	0.2123471	-0.10824432	-0.93779023	0.061976023	0.12872162	-1.2160494	0.21540537	-0.02667426	-0.91800346	0.079473237	0.042049876	-1.2896357	0.25848192	-0.058452059	-0.99231621	0.038340098	0.066320701	-0.90960079	0.40028247	-0.12978597	-0.86266585	0.44130006	0.15849631	-0.90622936	0.38638133	-0.0077910722	-0.89494454	0.43103187	0.033927968	-0.99510826	0.78795194	-0.12606364	-0.97789437	0.79997542	0.21849059	-0.91969656	0.83643063	-0.087667702	-0.89155592	0.85086814	0.15871258	-1.0888578	0.92131886	0.054068083	-0.96992426	1.3268815	-0.14152346	-0.9565417	1.3136434	0.22053705	-1.035602	1.3623619	0.041332155	-1.005731	1.0050082	-0.19971371	-1.0515597	1.0132095	0.28796099	-0.81650541	0.8440549	-0.19441644	-0.93433034	0.80750428	0.33596515
75	0.296	-1.1932357	0.084056505	-0.091311427	-0.80306481	0.036066302	0.11013429	-1.2180115	0.21097975	-0.10767118	-0.93794272	0.061887216	0.12863063	-1.2009958	0.21412145	-0.02607507	-0.91809469	0.079549737	0.042009898	-1.2755846	0.25573287	-0.057763811	-0.99239784	0.038366561	0.066298563	-0.89733843	0.40348484	-0.12906981	-0.86142624	0.44124006	0.15861033	-0.89364874	0.38977928	-0.0069277123	-0.89403972	0.43118398	0.03393366	-0.9883955	0.78996802	-0.12628122	-0.97362861	0.8009504	0.21854301	-0.91327487	0.83858306	-0.086911075	-0.88684231	0.85232374	0.15951213	-1.0828979	0.92290558	0.054447633	-0.964369	1.3285601	-0.14132954	-0.95054576	1.3157415	0.22054987	-1.0298423	1.3640301	0.041526296	-1.0016177	1.0069842	-0.19874045	-1.0445057	1.0147967	0.28858795	-0.81425918	0.84416289	-0.19476598	-0.92394776	0.81041181	0.33606094
76	0.3	-1.174641	0.083359919	-0.091425801	-0.80312488	0.036079583	0.11013199	-1.2027596	0.20944047	-0.10709836	-0.93810886	0.061807332	0.12853914	-1.1855769	0.21274982	-0.025576203	-0.91819023	0.079627115	0.041970909	-1.261599	0.25276212	-0.056871986	-0.99249266	0.038401894	0.06629922	-0.88517132	0.40675924	-0.12831844	-0.86014628	0.44119733	0.15870872	-0.88119113	0.39321944	-0.0061493488	-0.89306729	0.43136304	0.034029067	-0.98163814	0.79194781	-0.12661681	-0.96916559	0.80180105	0.21828728	-0.90694275	0.84071583	-0.086171548	-0.88216581	0.85375297	0.16017961	-1.076954	0.92445661	0.054822001	-0.95879462	1.3302114	-0.14113851	-0.94456114	1.317824	0.2205613	-1.0240904	1.3656647	0.041709648	-0.99745998	1.0089472	-0.19770137	-1.0373912	1.0163988	0.28930297	-0.81205319	0.84427509	-0.19514528	-0.91361364	0.81336637	0.33611842
